<svg xmlns="http://www.w3.org/2000/svg" width="98" height="44" viewBox="0 0 98 44" fill="none"><g clip-path="url(/themes/custom/webtarget/scss/%23clip0_1306_511)"><path fill-rule="evenodd" clip-rule="evenodd" d="M77.8 10.8C81.1 7.6 81.8 1.8 86.4 0C90.9 8.2 92 19.8 97.9 26.6C96.1 28.4 95.8 31.7 95 34.5C84 35.5 78.1 41.6 68.4 43.9C67.8 37.8 67.9 34.5 69.8 28.8C50.1 14.5 14.3 28.9 0 37.4C7.7 11.4 49.1 -2 77.8 10.8ZM85 1.4C83.2 5.3 80.3 8.3 79.2 12.9C53.5 -2.6 9.9 12.7 2.9 33.8C16.9 21 51.5 10 74.2 21.6C72.7 25.9 70.6 29.6 69.9 34.6C78 31.4 87.1 29.2 95.8 26.7C91.3 19.1 90.3 8.1 85 1.4Z" fill="#FF8500"/><path fill-rule="evenodd" clip-rule="evenodd" d="M84.9999 1.3999C83.1999 5.2999 80.2999 8.2999 79.1999 12.8999C53.4999 -2.6001 9.8999 12.6999 2.8999 33.7999C16.8999 20.9999 51.4999 9.9999 74.1999 21.5999C72.6999 25.8999 70.5999 29.5999 69.8999 34.5999C77.9999 31.3999 87.0999 29.1999 95.7999 26.6999C91.2999 19.0999 90.2999 8.0999 84.9999 1.3999Z" fill="#3F3D56"/></g><defs><clipPath id="clip0_1306_511"><rect width="97.9" height="43.9" fill="white"/></clipPath></defs></svg>